<svg width="102" height="102" fill="none" xmlns="http://www.w3.org/2000/svg"><mask id="a" maskUnits="userSpaceOnUse" x=".868" y=".455" width="100" height="100" fill="#000"><path fill="#fff" d="M.868.455h100v100h-100z"/><path d="M28.368 5.455v7.5h45v-7.5h-45Zm45 7.5v7.5h7.5v-7.5h-7.5Zm7.5 7.5v7.5h7.5v-7.5h-7.5Zm7.5 7.5v45h7.5v-45h-7.5Zm0 45h-7.5v7.5h7.5v-7.5Zm-7.5 7.5h-7.5v7.5h7.5v-7.5Zm-7.5 7.5h-45v7.5h45v-7.5Zm-45 0v-7.5h-7.5v7.5h7.5Zm-7.5-7.5v-7.5h-7.5v7.5h7.5Zm-7.5-7.5v-45h-7.5v45h7.5Zm0-45h7.5v-7.5h-7.5v7.5Zm7.5-7.5h7.5v-7.5h-7.5v7.5Zm15 7.5v7.5h-7.5v7.5h-7.5v15h7.5v7.5h7.5v7.5h7.5v-45h-7.5Zm15 15v7.5h7.5v-7.5h-7.5Zm7.5 7.5v7.5h7.5v-7.5h-7.5Zm7.5 0h7.5v-7.5h-7.5v7.5Zm0 7.5v7.5h7.5v-7.5h-7.5Zm-7.5 0h-7.5v7.5h7.5v-7.5Z"/></mask><path d="M28.368 5.455v7.5h45v-7.5h-45Zm45 7.5v7.5h7.5v-7.5h-7.5Zm7.5 7.5v7.5h7.5v-7.5h-7.5Zm7.5 7.5v45h7.5v-45h-7.5Zm0 45h-7.5v7.5h7.5v-7.5Zm-7.5 7.5h-7.5v7.5h7.5v-7.5Zm-7.5 7.5h-45v7.5h45v-7.5Zm-45 0v-7.5h-7.5v7.5h7.5Zm-7.5-7.5v-7.5h-7.5v7.5h7.5Zm-7.5-7.5v-45h-7.5v45h7.5Zm0-45h7.5v-7.5h-7.5v7.5Zm7.5-7.5h7.5v-7.5h-7.5v7.5Zm15 7.5v7.5h-7.5v7.5h-7.5v15h7.5v7.5h7.5v7.5h7.5v-45h-7.5Zm15 15v7.5h7.5v-7.5h-7.5Zm7.5 7.5v7.5h7.5v-7.5h-7.5Zm7.5 0h7.5v-7.5h-7.5v7.5Zm0 7.5v7.5h7.5v-7.5h-7.5Zm-7.5 0h-7.5v7.5h7.5v-7.5Z" fill="#fff"/><path d="M28.368 5.455v-5h-5v5h5Zm45 0h5v-5h-5v5Zm0 15h-5v5h5v-5Zm7.5-7.5h5v-5h-5v5Zm0 15h-5v5h5v-5Zm7.5-7.5h5v-5h-5v5Zm7.5 52.5v5h5v-5h-5Zm0-45h5v-5h-5v5Zm-15 45v-5h-5v5h5Zm7.5 7.5v5h5v-5h-5Zm-15 0v-5h-5v5h5Zm7.5 7.5v5h5v-5h-5Zm-52.5 7.5h-5v5h5v-5Zm45 0v5h5v-5h-5Zm-45-15h5v-5h-5v5Zm-7.5 7.5h-5v5h5v-5Zm0-15h5v-5h-5v5Zm-7.5 7.5h-5v5h5v-5Zm-7.5-52.5v-5h-5v5h5Zm0 45h-5v5h5v-5Zm15-45v5h5v-5h-5Zm-7.5-7.5v-5h-5v5h5Zm15 0v5h5v-5h-5Zm-7.5-7.5v-5h-5v5h5Zm15 15v-5h-5v5h5Zm0 7.5v5h5v-5h-5Zm-7.5 0v-5h-5v5h5Zm0 7.5v5h5v-5h-5Zm-7.5 0v-5h-5v5h5Zm0 15h-5v5h5v-5Zm7.5 0h5v-5h-5v5Zm0 7.5h-5v5h5v-5Zm7.5 0h5v-5h-5v5Zm0 7.5h-5v5h5v-5Zm7.5 0v5h5v-5h-5Zm0-45h5v-5h-5v5Zm7.5 15v-5h-5v5h5Zm0 7.5h-5v5h5v-5Zm7.5-7.5h5v-5h-5v5Zm15 7.5v5h5v-5h-5Zm0-7.5h5v-5h-5v5Zm-7.5 0v-5h-5v5h5Zm0 22.5h-5v5h5v-5Zm7.5 0v5h5v-5h-5Zm0-7.5h5v-5h-5v5Zm-22.5 0v-5h-5v5h5Zm0 7.5h-5v5h5v-5Zm7.5 0v5h5v-5h-5Zm-35-60v7.5h10v-7.5h-10Zm5 12.5h7.5v-10h-7.5v10Zm7.5 0h7.5v-10h-7.5v10Zm7.5 0h7.5v-10h-7.5v10Zm7.5 0h7.5v-10h-7.5v10Zm7.5 0h7.5v-10h-7.5v10Zm7.5 0h7.5v-10h-7.5v10Zm12.5-5v-7.5h-10v7.5h10Zm-5-12.5h-7.5v10h7.5v-10Zm-7.5 0h-7.5v10h7.5v-10Zm-7.5 0h-7.5v10h7.5v-10Zm-7.5 0h-7.5v10h7.5v-10Zm-7.5 0h-7.5v10h7.5v-10Zm-7.5 0h-7.5v10h7.5v-10Zm32.5 12.5v7.5h10v-7.5h-10Zm5 12.5h7.5v-10h-7.5v10Zm12.5-5v-7.5h-10v7.5h10Zm-5-12.5h-7.5v10h7.5v-10Zm-5 12.5v7.5h10v-7.5h-10Zm5 12.5h7.5v-10h-7.5v10Zm12.5-5v-7.5h-10v7.5h10Zm-5-12.5h-7.5v10h7.5v-10Zm-5 12.5v7.5h10v-7.5h-10Zm0 7.5v7.5h10v-7.5h-10Zm0 7.5v7.5h10v-7.5h-10Zm0 7.5v7.5h10v-7.5h-10Zm0 7.5v7.5h10v-7.5h-10Zm0 7.5v7.5h10v-7.5h-10Zm5 12.5h7.5v-10h-7.5v10Zm12.5-5v-7.5h-10v7.5h10Zm0-7.5v-7.5h-10v7.5h10Zm0-7.5v-7.5h-10v7.5h10Zm0-7.5v-7.5h-10v7.5h10Zm0-7.5v-7.5h-10v7.5h10Zm0-7.5v-7.5h-10v7.5h10Zm-5-12.5h-7.5v10h7.5v-10Zm-7.5 45h-7.5v10h7.5v-10Zm-12.5 5v7.5h10v-7.5h-10Zm5 12.5h7.5v-10h-7.5v10Zm12.5-5v-7.5h-10v7.5h10Zm-12.5-5h-7.5v10h7.5v-10Zm-12.5 5v7.5h10v-7.5h-10Zm5 12.5h7.5v-10h-7.5v10Zm12.5-5v-7.5h-10v7.5h10Zm-12.5-5h-7.5v10h7.5v-10Zm-7.5 0h-7.5v10h7.5v-10Zm-7.5 0h-7.5v10h7.5v-10Zm-7.5 0h-7.5v10h7.5v-10Zm-7.5 0h-7.5v10h7.5v-10Zm-7.5 0h-7.5v10h7.5v-10Zm-12.5 5v7.5h10v-7.5h-10Zm5 12.5h7.5v-10h-7.5v10Zm7.5 0h7.5v-10h-7.5v10Zm7.5 0h7.5v-10h-7.5v10Zm7.5 0h7.5v-10h-7.5v10Zm7.5 0h7.5v-10h-7.5v10Zm7.5 0h7.5v-10h-7.5v10Zm12.5-5v-7.5h-10v7.5h10Zm-45-7.5v-7.5h-10v7.5h10Zm-5-12.5h-7.5v10h7.5v-10Zm-12.5 5v7.5h10v-7.5h-10Zm5 12.5h7.5v-10h-7.5v10Zm5-12.5v-7.5h-10v7.5h10Zm-5-12.5h-7.5v10h7.5v-10Zm-12.5 5v7.5h10v-7.5h-10Zm5 12.5h7.5v-10h-7.5v10Zm5-12.5v-7.5h-10v7.5h10Zm0-7.5v-7.5h-10v7.5h10Zm0-7.5v-7.5h-10v7.5h10Zm0-7.5v-7.5h-10v7.5h10Zm0-7.5v-7.5h-10v7.5h10Zm0-7.5v-7.5h-10v7.5h10Zm-5-12.5h-7.5v10h7.5v-10Zm-12.5 5v7.5h10v-7.5h-10Zm0 7.5v7.5h10v-7.5h-10Zm0 7.5v7.5h10v-7.5h-10Zm0 7.5v7.5h10v-7.5h-10Zm0 7.5v7.5h10v-7.5h-10Zm0 7.5v7.5h10v-7.5h-10Zm5 12.5h7.5v-10h-7.5v10Zm7.5-45h7.5v-10h-7.5v10Zm12.5-5v-7.5h-10v7.5h10Zm-5-12.5h-7.5v10h7.5v-10Zm-12.5 5v7.5h10v-7.5h-10Zm12.5 5h7.5v-10h-7.5v10Zm12.5-5v-7.5h-10v7.5h10Zm-5-12.5h-7.5v10h7.5v-10Zm-12.5 5v7.5h10v-7.5h-10Zm15 15v7.5h10v-7.5h-10Zm5 2.5h-7.5v10h7.5v-10Zm-12.5 5v7.5h10v-7.5h-10Zm5 2.5h-7.5v10h7.5v-10Zm-12.5 5v7.5h10v-7.5h-10Zm0 7.5v7.5h10v-7.5h-10Zm5 12.5h7.5v-10h-7.5v10Zm2.5-5v7.5h10v-7.5h-10Zm5 12.5h7.5v-10h-7.5v10Zm2.5-5v7.5h10v-7.5h-10Zm5 12.5h7.5v-10h-7.5v10Zm12.5-5v-7.5h-10v7.5h10Zm0-7.5v-7.5h-10v7.5h10Zm0-7.5v-7.5h-10v7.5h10Zm0-7.5v-7.5h-10v7.5h10Zm0-7.5v-7.5h-10v7.5h10Zm0-7.5v-7.5h-10v7.5h10Zm-5-12.5h-7.5v10h7.5v-10Zm2.5 20v7.5h10v-7.5h-10Zm5 12.5h7.5v-10h-7.5v10Zm12.5-5v-7.5h-10v7.5h10Zm-5-12.5h-7.5v10h7.5v-10Zm-5 12.5v7.5h10v-7.5h-10Zm5 12.5h7.5v-10h-7.5v10Zm12.5-5v-7.5h-10v7.5h10Zm-5-12.5h-7.5v10h7.5v-10Zm0 10h7.5v-10h-7.5v10Zm12.5-5v-7.5h-10v7.5h10Zm-5-12.5h-7.5v10h7.5v-10Zm-12.5 5v7.5h10v-7.5h-10Zm0 15v7.5h10v-7.5h-10Zm5 12.5h7.5v-10h-7.5v10Zm12.5-5v-7.5h-10v7.5h10Zm-5-12.5h-7.5v10h7.5v-10Zm-15 0h-7.5v10h7.5v-10Zm-12.5 5v7.5h10v-7.5h-10Zm5 12.5h7.5v-10h-7.5v10Zm12.5-5v-7.5h-10v7.5h10Z" fill="#000" mask="url(#a)"/></svg>