<svg width="85" height="85" viewBox="0 0 85 85" fill="none" xmlns="http://www.w3.org/2000/svg">
<g clip-path="url(#clip0_51_22)">
<path d="M5.5 14.5H0.5V19.5H5.5V14.5Z" fill="#B10000"/>
<path d="M10.5 9.5H5.5V14.5H10.5V9.5Z" fill="#B10000"/>
<path d="M15.5 4.5H10.5V9.5H15.5V4.5Z" fill="#B10000"/>
<path d="M20.5 -0.5H15.5V4.5H20.5V-0.5Z" fill="#B10000"/>
<path d="M25.5 4.5H20.5V9.5H25.5V4.5Z" fill="#B10000"/>
<path d="M30.5 9.5H25.5V14.5H30.5V9.5Z" fill="#B10000"/>
<path d="M35.5 14.5H30.5V19.5H35.5V14.5Z" fill="#B10000"/>
<path d="M40.5 19.5H35.5V24.5H40.5V19.5Z" fill="#B10000"/>
<path d="M45.5 24.5H40.5V29.5H45.5V24.5Z" fill="#B10000"/>
<path d="M10.5 19.5H5.5V24.5H10.5V19.5Z" fill="#B10000"/>
<path d="M15.5 24.5H10.5V29.5H15.5V24.5Z" fill="#B10000"/>
<path d="M20.5 29.5H15.5V34.5H20.5V29.5Z" fill="#B10000"/>
<path d="M25.5 34.5H20.5V39.5H25.5V34.5Z" fill="#B10000"/>
<path d="M70.5 -0.5H65.5V4.5H70.5V-0.5Z" fill="#B10000"/>
<path d="M75.5 4.5H70.5V9.5H75.5V4.5Z" fill="#B10000"/>
<path d="M80.5 9.5H75.5V14.5H80.5V9.5Z" fill="#B10000"/>
<path d="M85.5 14.5H80.5V19.5H85.5V14.5Z" fill="#B10000"/>
<path d="M80.5 19.5H75.5V24.5H80.5V19.5Z" fill="#B10000"/>
<path d="M75.5 24.5H70.5V29.5H75.5V24.5Z" fill="#B10000"/>
<path d="M70.5 29.5H65.5V34.5H70.5V29.5Z" fill="#B10000"/>
<path d="M65.5 34.5H60.5V39.5H65.5V34.5Z" fill="#B10000"/>
<path d="M60.5 39.5H55.5V44.5H60.5V39.5Z" fill="#B10000"/>
<path d="M65.5 4.5H60.5V9.5H65.5V4.5Z" fill="#B10000"/>
<path d="M60.5 9.5H55.5V14.5H60.5V9.5Z" fill="#B10000"/>
<path d="M55.5 14.5H50.5V19.5H55.5V14.5Z" fill="#B10000"/>
<path d="M50.5 19.5H45.5V24.5H50.5V19.5Z" fill="#B10000"/>
<path d="M85.5 64.5H80.5V69.5H85.5V64.5Z" fill="#B10000"/>
<path d="M80.5 69.5H75.5V74.5H80.5V69.5Z" fill="#B10000"/>
<path d="M75.5 74.5H70.5V79.5H75.5V74.5Z" fill="#B10000"/>
<path d="M70.5 79.5H65.5V84.5H70.5V79.5Z" fill="#B10000"/>
<path d="M65.5 74.5H60.5V79.5H65.5V74.5Z" fill="#B10000"/>
<path d="M60.5 69.5H55.5V74.5H60.5V69.5Z" fill="#B10000"/>
<path d="M55.5 64.5H50.5V69.5H55.5V64.5Z" fill="#B10000"/>
<path d="M50.5 59.5H45.5V64.5H50.5V59.5Z" fill="#B10000"/>
<path d="M45.5 54.5H40.5V59.5H45.5V54.5Z" fill="#B10000"/>
<path d="M80.5 59.5H75.5V64.5H80.5V59.5Z" fill="#B10000"/>
<path d="M75.5 54.5H70.5V59.5H75.5V54.5Z" fill="#B10000"/>
<path d="M70.5 49.5H65.5V54.5H70.5V49.5Z" fill="#B10000"/>
<path d="M65.5 44.5H60.5V49.5H65.5V44.5Z" fill="#B10000"/>
<path d="M20.5 79.5H15.5V84.5H20.5V79.5Z" fill="#B10000"/>
<path d="M15.5 74.5H10.5V79.5H15.5V74.5Z" fill="#B10000"/>
<path d="M10.5 69.5H5.5V74.5H10.5V69.5Z" fill="#B10000"/>
<path d="M5.5 64.5H0.5V69.5H5.5V64.5Z" fill="#B10000"/>
<path d="M10.5 59.5H5.5V64.5H10.5V59.5Z" fill="#B10000"/>
<path d="M15.5 54.5H10.5V59.5H15.5V54.5Z" fill="#B10000"/>
<path d="M20.5 49.5H15.5V54.5H20.5V49.5Z" fill="#B10000"/>
<path d="M25.5 44.5H20.5V49.5H25.5V44.5Z" fill="#B10000"/>
<path d="M30.5 39.5H25.5V44.5H30.5V39.5Z" fill="#B10000"/>
<path d="M25.5 74.5H20.5V79.5H25.5V74.5Z" fill="#B10000"/>
<path d="M30.5 69.5H25.5V74.5H30.5V69.5Z" fill="#B10000"/>
<path d="M35.5 64.5H30.5V69.5H35.5V64.5Z" fill="#B10000"/>
<path d="M40.5 59.5H35.5V64.5H40.5V59.5Z" fill="#B10000"/>
</g>
<defs>
<clipPath id="clip0_51_22">
<rect width="85" height="85" fill="white"/>
</clipPath>
</defs>
</svg>
